<?xml version="1.0" encoding="UTF-8"?>
<svg width="180" height="180" viewBox="0 0 180 180" fill="none" xmlns="http://www.w3.org/2000/svg">
  <rect width="180" height="180" fill="#000000"/>
  <path d="M90 20C52.3858 20 20 52.3858 20 90C20 127.614 52.3858 160 90 160C127.614 160 160 127.614 160 90C160 52.3858 127.614 20 90 20ZM90 140C63.4903 140 40 116.51 40 90C40 63.4903 63.4903 40 90 40C116.51 40 140 63.4903 140 90C140 116.51 116.51 140 90 140Z" fill="#FF0000"/>
  <path d="M65 75C71.0751 75 76 70.0751 76 64C76 57.9249 71.0751 53 65 53C58.9249 53 54 57.9249 54 64C54 70.0751 58.9249 75 65 75Z" fill="#FF0000"/>
  <path d="M115 75C121.075 75 126 70.0751 126 64C126 57.9249 121.075 53 115 53C108.925 53 104 57.9249 104 64C104 70.0751 108.925 75 115 75Z" fill="#FF0000"/>
  <path d="M90 130C103.807 130 115 118.807 115 105H65C65 118.807 76.1929 130 90 130Z" fill="#FF0000"/>
</svg> 
